<svg width="150" height="150" viewBox="0 0 150 150" fill="none" xmlns="http://www.w3.org/2000/svg">
<path d="M110.375 135.812H39.625C33.1935 135.812 27.0254 133.258 22.4777 128.71C17.9299 124.162 15.375 117.994 15.375 111.563V40.8125C15.375 34.381 17.9299 28.2129 22.4777 23.6652C27.0254 19.1174 33.1935 16.5625 39.625 16.5625H110.375C116.806 16.5625 122.975 19.1174 127.522 23.6652C132.07 28.2129 134.625 34.381 134.625 40.8125V111.563C134.625 117.994 132.07 124.162 127.522 128.71C122.975 133.258 116.806 135.812 110.375 135.812ZM39.625 22.8125C34.8511 22.8125 30.2727 24.7089 26.8971 28.0846C23.5214 31.4602 21.625 36.0386 21.625 40.8125V111.563C21.625 116.336 23.5214 120.915 26.8971 124.29C30.2727 127.666 34.8511 129.562 39.625 129.562H110.375C115.149 129.562 119.727 127.666 123.103 124.29C126.479 120.915 128.375 116.336 128.375 111.563V40.8125C128.375 36.0386 126.479 31.4602 123.103 28.0846C119.727 24.7089 115.149 22.8125 110.375 22.8125H39.625Z" fill="#D6D7D8"/>
<path d="M51.1875 74.3125C46.7948 74.3125 42.5821 72.5675 39.476 69.4615C36.37 66.3554 34.625 62.1426 34.625 57.75C34.625 56.9212 34.9542 56.1263 35.5403 55.5403C36.1263 54.9542 36.9212 54.625 37.75 54.625C38.5788 54.625 39.3737 54.9542 39.9597 55.5403C40.5458 56.1263 40.875 56.9212 40.875 57.75C40.875 60.485 41.9615 63.1081 43.8955 65.042C45.8294 66.976 48.4525 68.0625 51.1875 68.0625C53.9225 68.0625 56.5456 66.976 58.4795 65.042C60.4135 63.1081 61.5 60.485 61.5 57.75C61.5 56.9212 61.8292 56.1263 62.4153 55.5403C63.0013 54.9542 63.7962 54.625 64.625 54.625C65.4538 54.625 66.2487 54.9542 66.8347 55.5403C67.4208 56.1263 67.75 56.9212 67.75 57.75C67.75 62.1426 66.005 66.3554 62.899 69.4615C59.7929 72.5675 55.5801 74.3125 51.1875 74.3125Z" fill="#D6D7D8"/>
<path d="M100 74.3125C95.6016 74.3125 91.3824 72.5696 88.2664 69.4653C85.1504 66.361 83.3915 62.1484 83.375 57.75C83.375 56.9212 83.7042 56.1263 84.2903 55.5403C84.8763 54.9542 85.6712 54.625 86.5 54.625C87.3288 54.625 88.1237 54.9542 88.7097 55.5403C89.2958 56.1263 89.625 56.9212 89.625 57.75C89.8276 60.3545 91.0053 62.7866 92.9227 64.5608C94.8402 66.3349 97.3564 67.3204 99.9688 67.3204C102.581 67.3204 105.097 66.3349 107.015 64.5608C108.932 62.7866 110.11 60.3545 110.312 57.75C110.312 56.9212 110.642 56.1263 111.228 55.5403C111.814 54.9542 112.609 54.625 113.437 54.625C114.266 54.625 115.061 54.9542 115.647 55.5403C116.233 56.1263 116.562 56.9212 116.562 57.75C116.562 62.1426 114.818 66.3554 111.711 69.4615C108.605 72.5675 104.393 74.3125 100 74.3125Z" fill="#D6D7D8"/>
<path d="M100 108.562H51.1875C50.3587 108.562 49.5638 108.233 48.9778 107.647C48.3917 107.061 48.0625 106.266 48.0625 105.438C48.0625 104.609 48.3917 103.814 48.9778 103.228C49.5638 102.642 50.3587 102.312 51.1875 102.312H100C100.824 102.329 101.609 102.663 102.192 103.245C102.775 103.828 103.109 104.614 103.125 105.438C103.125 106.266 102.796 107.061 102.21 107.647C101.624 108.233 100.829 108.562 100 108.562Z" fill="#D6D7D8"/>
</svg>
