<svg width="150" height="150" viewBox="0 0 150 150" fill="none" xmlns="http://www.w3.org/2000/svg">
<path d="M110.375 135.812H39.625C33.1935 135.812 27.0254 133.258 22.4777 128.71C17.9299 124.162 15.375 117.994 15.375 111.563V40.8125C15.375 34.381 17.9299 28.2129 22.4777 23.6652C27.0254 19.1174 33.1935 16.5625 39.625 16.5625H110.375C116.806 16.5625 122.975 19.1174 127.522 23.6652C132.07 28.2129 134.625 34.381 134.625 40.8125V111.563C134.625 117.994 132.07 124.162 127.522 128.71C122.975 133.258 116.806 135.812 110.375 135.812ZM39.625 22.8125C34.8511 22.8125 30.2727 24.7089 26.8971 28.0846C23.5214 31.4602 21.625 36.0386 21.625 40.8125V111.563C21.625 116.336 23.5214 120.915 26.8971 124.29C30.2727 127.666 34.8511 129.562 39.625 129.562H110.375C115.149 129.562 119.727 127.666 123.103 124.29C126.479 120.915 128.375 116.336 128.375 111.563V40.8125C128.375 36.0386 126.479 31.4602 123.103 28.0846C119.727 24.7089 115.149 22.8125 110.375 22.8125H39.625Z" fill="#D6D7D8"/>
<path d="M113.312 74.3125C112.484 74.3125 111.689 73.9832 111.103 73.3972C110.517 72.8111 110.187 72.0163 110.187 71.1875C109.985 68.583 108.807 66.1509 106.89 64.3767C104.972 62.6026 102.456 61.6171 99.8438 61.6171C97.2314 61.6171 94.7152 62.6026 92.7977 64.3767C90.8803 66.1509 89.7026 68.583 89.5 71.1875C89.5 72.0163 89.1708 72.8111 88.5847 73.3972C87.9987 73.9832 87.2038 74.3125 86.375 74.3125C85.5462 74.3125 84.7513 73.9832 84.1653 73.3972C83.5792 72.8111 83.25 72.0163 83.25 71.1875C83.5094 66.9626 85.3706 62.9957 88.454 60.0958C91.5374 57.1959 95.6109 55.5814 99.8438 55.5814C104.077 55.5814 108.15 57.1959 111.233 60.0958C114.317 62.9957 116.178 66.9626 116.437 71.1875C116.437 72.0163 116.108 72.8111 115.522 73.3972C114.936 73.9832 114.141 74.3125 113.312 74.3125Z" fill="#D6D7D8"/>
<path d="M64.625 74.3125C63.7962 74.3125 63.0013 73.9833 62.4153 73.3972C61.8292 72.8112 61.5 72.0163 61.5 71.1875C61.5 68.4525 60.4135 65.8294 58.4795 63.8955C56.5456 61.9615 53.9225 60.875 51.1875 60.875C48.4525 60.875 45.8294 61.9615 43.8955 63.8955C41.9615 65.8294 40.875 68.4525 40.875 71.1875C40.875 72.0163 40.5458 72.8112 39.9597 73.3972C39.3737 73.9833 38.5788 74.3125 37.75 74.3125C36.9212 74.3125 36.1263 73.9833 35.5403 73.3972C34.9542 72.8112 34.625 72.0163 34.625 71.1875C34.625 66.7949 36.37 62.5821 39.476 59.476C42.5821 56.37 46.7948 54.625 51.1875 54.625C55.5801 54.625 59.7929 56.37 62.899 59.476C66.005 62.5821 67.75 66.7949 67.75 71.1875C67.75 72.0163 67.4208 72.8112 66.8347 73.3972C66.2487 73.9833 65.4538 74.3125 64.625 74.3125Z" fill="#D6D7D8"/>
<path d="M100 108.562H51.1875C50.3587 108.562 49.5638 108.233 48.9778 107.647C48.3917 107.061 48.0625 106.266 48.0625 105.438C48.0625 104.609 48.3917 103.814 48.9778 103.228C49.5638 102.642 50.3587 102.312 51.1875 102.312H100C100.824 102.329 101.609 102.663 102.192 103.245C102.775 103.828 103.109 104.614 103.125 105.438C103.125 106.266 102.796 107.061 102.21 107.647C101.624 108.233 100.829 108.562 100 108.562Z" fill="#D6D7D8"/>
</svg>
