<svg width="150" height="150" viewBox="0 0 150 150" fill="none" xmlns="http://www.w3.org/2000/svg">
<path d="M110.375 134.562H39.625C33.1935 134.562 27.0254 132.008 22.4777 127.46C17.9299 122.912 15.375 116.744 15.375 110.312V39.5625C15.375 33.131 17.9299 26.9629 22.4777 22.4152C27.0254 17.8674 33.1935 15.3125 39.625 15.3125H110.375C116.806 15.3125 122.975 17.8674 127.522 22.4152C132.07 26.9629 134.625 33.131 134.625 39.5625V110.312C134.625 113.497 133.998 116.65 132.779 119.593C131.56 122.535 129.774 125.208 127.522 127.46C125.271 129.712 122.597 131.498 119.655 132.717C116.713 133.935 113.56 134.562 110.375 134.562V134.562ZM39.625 21.5625C34.8511 21.5625 30.2727 23.4589 26.8971 26.8346C23.5214 30.2102 21.625 34.7886 21.625 39.5625V110.312C21.625 115.086 23.5214 119.665 26.8971 123.04C30.2727 126.416 34.8511 128.312 39.625 128.312H110.375C115.149 128.312 119.727 126.416 123.103 123.04C126.479 119.665 128.375 115.086 128.375 110.312V39.5625C128.375 34.7886 126.479 30.2102 123.103 26.8346C119.727 23.4589 115.149 21.5625 110.375 21.5625H39.625Z" fill="#D6D7D8"/>
<path d="M51.1884 79.3124C47.9057 79.3245 44.6928 78.3645 41.9549 76.5534C39.217 74.7423 37.0765 72.1612 35.8033 69.1354C34.5301 66.1096 34.1812 62.7747 34.8005 59.5509C35.4199 56.3271 36.9798 53.3588 39.2836 51.0202C41.5874 48.6817 44.5319 47.0775 47.7461 46.4099C50.9602 45.7423 54.3001 46.0412 57.3446 47.269C60.3891 48.4967 63.002 50.5983 64.8539 53.3088C66.7058 56.0193 67.7139 59.2174 67.7509 62.4999C67.7841 64.6959 67.3801 66.8765 66.5626 68.9149C65.7452 70.9533 64.5304 72.8088 62.9891 74.3733C61.4479 75.9378 59.6108 77.1802 57.5849 78.0282C55.559 78.8761 53.3846 79.3126 51.1884 79.3124ZM51.1884 52.3749C49.1233 52.3631 47.1016 52.9678 45.3822 54.1117C43.6628 55.2556 42.3239 56.8866 41.5368 58.7959C40.7498 60.7052 40.5505 62.8059 40.9644 64.8292C41.3784 66.8524 42.3867 68.7061 43.8603 70.153C45.3339 71.5998 47.2058 72.5739 49.2363 72.9506C51.2668 73.3274 53.3635 73.0896 55.2581 72.2676C57.1526 71.4457 58.7588 70.0771 59.8709 68.337C60.9831 66.5969 61.5506 64.5645 61.5009 62.4999C61.4359 59.8026 60.3228 57.2367 58.3975 55.3465C56.4723 53.4563 53.8864 52.3904 51.1884 52.3749V52.3749Z" fill="#D6D7D8"/>
<path d="M100.001 79.3124C96.7131 79.3493 93.4882 78.4104 90.7339 76.6145C87.9797 74.8186 85.8198 72.2463 84.5275 69.2229C83.2351 66.1995 82.8683 62.8608 83.4734 59.6289C84.0785 56.3971 85.6284 53.4172 87.927 51.0662C90.2256 48.7151 93.1698 47.0984 96.3871 46.4206C99.6045 45.7428 102.951 46.0342 106.002 47.258C109.054 48.4819 111.675 50.5831 113.532 53.2962C115.39 56.0092 116.401 59.2121 116.438 62.4999C116.463 64.6832 116.058 66.85 115.245 68.8765C114.432 70.903 113.228 72.7496 111.702 74.3108C110.176 75.872 108.357 77.1173 106.349 77.9755C104.341 78.8336 102.184 79.288 100.001 79.3124V79.3124ZM100.001 52.3749C98.5749 52.264 97.1414 52.4491 95.7904 52.9186C94.4394 53.3882 93.2001 54.1319 92.1502 55.1033C91.1004 56.0746 90.2627 57.2525 89.6899 58.5631C89.117 59.8736 88.8212 61.2884 88.8212 62.7187C88.8212 64.149 89.117 65.5638 89.6899 66.8743C90.2627 68.1848 91.1004 69.3628 92.1502 70.3341C93.2001 71.3054 94.4394 72.0492 95.7904 72.5187C97.1414 72.9883 98.5749 73.1734 100.001 73.0624C102.605 72.8598 105.038 71.6822 106.812 69.7647C108.586 67.8472 109.571 65.331 109.571 62.7187C109.571 60.1064 108.586 57.5902 106.812 55.6727C105.038 53.7552 102.605 52.5775 100.001 52.3749Z" fill="#D6D7D8"/>
<path d="M100 107.312H51.1875C50.3587 107.312 49.5638 106.983 48.9778 106.397C48.3917 105.811 48.0625 105.016 48.0625 104.188C48.0625 103.359 48.3917 102.564 48.9778 101.978C49.5638 101.392 50.3587 101.062 51.1875 101.062H100C100.824 101.079 101.609 101.413 102.192 101.995C102.775 102.578 103.109 103.364 103.125 104.188C103.125 105.016 102.796 105.811 102.21 106.397C101.624 106.983 100.829 107.312 100 107.312Z" fill="#D6D7D8"/>
</svg>
